<svg id="_1" data-name="1" xmlns="http://www.w3.org/2000/svg" viewBox="0 0 756.1 158.76"><defs><style>.cls-1,.cls-4{fill:#e0e0e0;}.cls-2{fill:#fff;}.cls-2,.cls-3,.cls-4,.cls-5{fill-rule:evenodd;}.cls-3{fill:#dadada;}.cls-5{fill:#9b9b9b;}</style></defs><title>Logo</title><rect class="cls-1" width="272.56" height="133.28"/><path class="cls-2" d="M267,284.42h34.93v11.85H267v3.44a31.79,31.79,0,0,0,32,32h2.91v12.16H299a43.24,43.24,0,0,1-17.27-3.49A44,44,0,0,1,258.35,317a43.23,43.23,0,0,1-3.49-17.27V249.17H267v35.25ZM68.56,272.26l.49-.66a42.3,42.3,0,0,1,8.61-8.52,39.12,39.12,0,0,1,10.72-5.57,38,38,0,0,1,12.2-2A43.23,43.23,0,0,1,117.85,259a44,44,0,0,1,23.43,23.43,43.23,43.23,0,0,1,3.49,17.27v42.6H132.61v-42.6a32.3,32.3,0,0,0-2.47-12.61,31.74,31.74,0,0,0-6.84-10.26,33.08,33.08,0,0,0-10.22-6.93,32.19,32.19,0,0,0-24.69-.14,32.59,32.59,0,0,0-17.07,16.56,30,30,0,0,0-2.75,12v44H56.4V225.35H68.56v46.9Zm87.86,27.45a43.23,43.23,0,0,1,3.49-17.27A44,44,0,0,1,183.34,259a44.43,44.43,0,0,1,34.53,0,44,44,0,0,1,23.43,23.43,44.42,44.42,0,0,1,0,34.53,44,44,0,0,1-23.43,23.43,44.43,44.43,0,0,1-34.53,0A44,44,0,0,1,159.91,317a43.23,43.23,0,0,1-3.49-17.27Zm11.62,0a32.85,32.85,0,0,0,2.51,12.82,32.29,32.29,0,0,0,7,10.44A33.63,33.63,0,0,0,187.9,330a32.57,32.57,0,0,0,25.4,0,33.62,33.62,0,0,0,10.4-7.05,32.32,32.32,0,0,0,7-10.44,34,34,0,0,0,0-25.64,32.31,32.31,0,0,0-7-10.44,33.65,33.65,0,0,0-10.4-7.05,32.59,32.59,0,0,0-25.4,0,33.66,33.66,0,0,0-10.4,7.05,32.29,32.29,0,0,0-7,10.44A32.86,32.86,0,0,0,168,299.71Z" transform="translate(-42.9 -217.98)"/><path class="cls-3" d="M722.79,274.94l.49-.66a42.31,42.31,0,0,1,8.61-8.52,39.12,39.12,0,0,1,10.72-5.57,38,38,0,0,1,12.2-2,43.23,43.23,0,0,1,17.27,3.49,44,44,0,0,1,23.43,23.43A43.23,43.23,0,0,1,799,302.39V345H786.83v-42.6a31.79,31.79,0,0,0-32-32,31.06,31.06,0,0,0-12.2,2.39,33.45,33.45,0,0,0-10.09,6.57,32.09,32.09,0,0,0-7,9.76A29.4,29.4,0,0,0,722.79,301v44H710.62v-85.2h12.16v15.15ZM519.57,330v46.75H507.4V302.39a43.23,43.23,0,0,1,3.49-17.27,44,44,0,0,1,23.43-23.43,44.43,44.43,0,0,1,34.53,0,44,44,0,0,1,23.43,23.43,44.42,44.42,0,0,1,0,34.53,44,44,0,0,1-23.43,23.43,43.24,43.24,0,0,1-17.27,3.49,37.22,37.22,0,0,1-12.14-2,40.77,40.77,0,0,1-10.6-5.47,43.19,43.19,0,0,1-8.68-8.34l-.61-.79ZM450,334.41a31.79,31.79,0,0,0,32-32v-42.6h12.16v42.6a43.23,43.23,0,0,1-3.49,17.27,44,44,0,0,1-23.43,23.43,44.43,44.43,0,0,1-34.53,0,44,44,0,0,1-23.43-23.43,43.23,43.23,0,0,1-3.49-17.27v-42.6H418v42.6a31.79,31.79,0,0,0,32,32Zm-116-38.1h22.87l30-36.52h15.3l-34.93,42.6L402.14,345h-15.3l-30-36.52H334V345H321.8V228H334v68.27Zm336.29-19.76-5.51-2.89q-1.1-.58-2.24-1.08a32,32,0,0,0-25,0,33.09,33.09,0,0,0-10.22,6.93,31.76,31.76,0,0,0-6.84,10.26,33.38,33.38,0,0,0,0,25.22,31.76,31.76,0,0,0,6.84,10.26,32.68,32.68,0,0,0,10.21,6.93l2.74,1.18-1,.43c-3.54,1.55-7.05,3.22-10.49,5l-2.17,1.12a43.69,43.69,0,0,1-7.87-6.23,44.68,44.68,0,0,1-9.42-14,44.42,44.42,0,0,1,0-34.53,44,44,0,0,1,23.43-23.43A43.23,43.23,0,0,1,650,258.21a45.14,45.14,0,0,1,7.94.69c4.56,3.64,9,11.39,12.29,17.65Zm-148,39.14a32.09,32.09,0,0,0,7,9.76A33.46,33.46,0,0,0,539.38,332a31.05,31.05,0,0,0,12.2,2.39,32.18,32.18,0,1,0-32-32v1.36A29.48,29.48,0,0,0,522.31,315.69Z" transform="translate(-42.9 -217.98)"/><path class="cls-4" d="M669.49,257.61s-6.65,4.33.37,13.68,12,19.32,4.79,37-25.37,24.36-34.2,28.22-27.09,12.94-23.28,14.9,11.07-1.83,22.32-1.85,31.85-.35,49.73-21.91,15.87-39.46,13-52.44-8.89-24.48-18.44-24.19A19.18,19.18,0,0,0,669.49,257.61Z" transform="translate(-42.9 -217.98)"/><path class="cls-5" d="M654.24,239a18.45,18.45,0,0,1,9.32,3.92c4.32,3.54,5.45,8.14,8.31,10.72a19.43,19.43,0,0,0-4.36,2.9c-1.68,1.63-3.74,2.68-4.83,2a6.52,6.52,0,0,0,6.81-1c3.22-2.74,5.82-3.3,7.65-4.57s5.89-1.47,7.17-2.31a8.1,8.1,0,0,0,3.85-6.11S686,248.5,684,249.26s-4.21-.16-5.85.81c0,0-10.81-11.81-21.92-13.33C656.24,236.75,654.69,236.84,654.24,239Z" transform="translate(-42.9 -217.98)"/></svg>
