<?xml version="1.0" encoding="UTF-8"?>
<svg viewBox="0 0 26 26" version="1.1" xmlns="http://www.w3.org/2000/svg" xmlns:xlink="http://www.w3.org/1999/xlink">
<path d="M16.2029744,12.8432809 C16.2029744,12.9554098 16.1119713,13.046413 15.9998425,13.046413 L14.227111,13.046413 C14.1151853,13.046413 14.0239791,13.1374161 14.0239791,13.249545 L14.0239791,20.9630786 C14.0239791,21.0752075 13.932976,21.1662107 13.8208473,21.1662107 L11.0893334,21.1662107 C10.9772046,21.1662107 10.8862015,21.0752075 10.8862015,20.9630786 L10.8862015,13.249545 C10.8862015,13.1374161 10.7951985,13.046413 10.6830697,13.046413 L9.7326158,13.046413 C9.62048703,13.046413 9.52948396,12.9554098 9.52948396,12.8432809 L9.52948396,10.7489894 C9.52948396,10.6368605 9.62048703,10.5458574 9.7326158,10.5458574 L10.8862015,10.5458574 L10.8862015,10.4188998 C10.8862015,8.87915882 11.3505609,7.588864 12.1937612,6.78608611 C12.9004569,6.11818791 13.928304,5.73569024 15.0142468,5.73569024 C15.0392321,5.73569024 15.0634047,5.73751843 15.0875774,5.73833096 L15.0875774,5.73792469 L15.7873666,5.73792469 C15.8994954,5.73792469 15.9904985,5.82892786 15.9904985,5.94105675 L15.9904985,8.17550938 C15.9904985,8.28784141 15.8994954,8.37864144 15.7873666,8.37864144 L15.1688302,8.37864144 C14.2159387,8.50905222 14.0034628,9.49586775 14.0034628,10.3366313 L14.0034628,10.5458574 L15.9998425,10.5458574 C16.1119713,10.5458574 16.2029744,10.6368605 16.2029744,10.7489894 L16.2029744,12.8432809 Z M13.0635718,5.34778424e-05 C5.88550184,-0.0202597279 0.0355079065,5.74889383 0.000162965872,12.8828917 C-0.0353851066,20.1115491 5.74920037,25.9788154 12.9333642,25.9999411 C20.1049339,26.02127 25.9626469,20.2448037 25.99982,13.1144622 C26.0371963,5.88905494 20.2485482,0.0205698156 13.0635718,5.34778424e-05 Z"></path>
</svg>
