<?xml version="1.0" encoding="UTF-8"?>
<svg viewBox="0 0 26 26" version="1.1" xmlns="http://www.w3.org/2000/svg" xmlns:xlink="http://www.w3.org/1999/xlink">
<path d="M17.9196028,14.8943221 C18.1312643,15.12224 18.3677076,15.3270004 18.5797753,15.5545121 C18.9982231,16.0032381 19.4189053,16.4513548 19.8141963,16.9201913 C19.9547623,17.0869654 20.0540929,17.3043203 20.1192976,17.5149717 C20.2196438,17.8391758 20.0248421,18.1235653 19.6845994,18.1369722 C18.8379535,18.1704896 17.9890733,18.2076633 17.14324,18.1773962 C16.8736864,18.1676457 16.5726478,17.9978245 16.3546893,17.8182528 C15.9910866,17.518425 15.6855791,17.1491248 15.3504146,16.8141546 C15.1747071,16.6386456 15.0006247,16.4580583 14.8037917,16.3087538 C14.566739,16.1289789 14.3922504,16.1659496 14.2047614,16.3995553 C13.9957406,16.6599748 13.9303327,16.9723971 13.9157074,17.2935541 C13.8813784,18.051046 13.8005327,18.1235653 13.0436703,18.1796307 C11.0519806,18.3273101 9.51591157,17.4725164 8.28799072,15.9920657 C6.94773897,14.3759206 5.96174595,12.5426237 5.12769417,10.6242131 C4.93431441,10.1795497 5.06147379,9.96747641 5.54268876,9.95467888 C6.25831575,9.93578729 6.974349,9.93395907 7.69038226,9.93984999 C8.00807758,9.94249075 8.18195686,10.1535484 8.31175693,10.4257498 C8.62945225,11.0918308 8.93963176,11.7625838 9.29328109,12.40957 C9.5039269,12.7945116 9.78465256,13.1424825 10.047909,13.4967506 C10.1188014,13.5920211 10.2323511,13.6669781 10.3414319,13.7197933 C10.5222176,13.8071415 10.6885811,13.7646862 10.7590672,13.5645978 C10.8279282,13.3687753 10.8825702,13.1638117 10.9106022,12.958645 C11.0016044,12.2927672 10.9949011,11.6256706 10.8817577,10.9624335 C10.8163498,10.5799296 10.6034696,10.3298699 10.2106162,10.2518659 C10.1523179,10.2400841 10.0972696,10.212864 10.0158145,10.1840187 C10.1460208,9.85717389 10.3942457,9.72188572 10.6723307,9.67171128 C11.5581806,9.51245314 12.4499213,9.50148383 13.3365837,9.66257019 C13.7519846,9.73813656 13.912051,9.95447574 13.9128636,10.3841071 C13.9144886,11.2011176 13.9059571,12.0181281 13.9031133,12.8351387 C13.9027071,12.9596606 13.9023008,13.0849952 13.9148949,13.2085015 C13.9364266,13.4138714 13.9796933,13.6245228 14.1954174,13.7088239 C14.40261,13.7896718 14.5283475,13.6222883 14.6481942,13.4941098 C15.3043041,12.7928865 15.7576902,11.960844 16.1716692,11.1046283 C16.2929378,10.8529436 16.3993779,10.5939459 16.508865,10.3365734 C16.6090081,10.1011395 16.7644025,9.96097607 17.0388311,9.96077294 C17.9334157,9.96036667 18.8284064,9.94249075 19.722991,9.94858482 C20.0530772,9.9508193 20.2385349,10.1941755 20.126204,10.4996911 C19.9907163,10.8681787 19.8357281,11.2417447 19.618379,11.5655425 C19.1556489,12.2562028 18.646402,12.9155803 18.1580774,13.5893803 C18.0441215,13.7466071 17.9285405,13.9040371 17.830835,14.0716237 C17.6419241,14.3952184 17.663659,14.6186673 17.9196028,14.8943221 M13.1265473,0.000232415094 C5.89674435,-0.0422228806 0.0254748206,5.73718199 8.35705303e-05,12.9216743 C-0.0253076795,20.0984475 5.73850608,25.9550438 12.8708067,25.9997336 C20.0916719,26.0452359 25.9735042,20.2554712 25.9999111,13.0758541 C26.0261149,5.90294047 20.2560041,0.0420783046 13.1265473,0.000232415094"></path>
</svg>
