<?xml version="1.0" encoding="UTF-8"?>
<svg viewBox="0 0 26 26" version="1.1" xmlns="http://www.w3.org/2000/svg" xmlns:xlink="http://www.w3.org/1999/xlink">
<path d="M19.3152172,16.7571828 C19.2928734,18.3403391 18.3641859,19.3003078 16.8027641,19.3135109 C14.2649203,19.3352453 11.7262641,19.3354484 9.18842031,19.3135109 C7.62781094,19.3001047 6.69363906,18.3397297 6.68267031,16.7529172 C6.66520156,14.2485891 6.66459219,11.7442609 6.68307656,9.23993281 C6.69485781,7.61087031 7.63695156,6.69233906 9.29384219,6.68238594 C11.7642484,6.66755781 14.2346547,6.66715156 16.7050609,6.68238594 C18.3881547,6.69294844 19.3014047,7.63463594 19.3174516,9.34576094 C19.3286234,10.5639016 19.3194828,11.7824484 19.3192797,13.0005891 C19.3188734,14.2528547 19.3330922,15.5051203 19.3152172,16.7571828 M13.1262016,0.0016046875 C5.89637344,-0.0408484375 0.0254515625,5.73826094 6.09375e-05,12.9221828 C-0.0253296875,20.0985891 5.73834219,25.9548859 12.8702641,25.9997766 C20.0911547,26.0450734 25.9728422,20.2556047 25.9992484,13.0763547 C26.0254516,5.90380781 20.2554828,0.0434484375 13.1262016,0.0016046875"></path>
<path d="M12.9989066,14.9999997 C14.0969078,14.9994514 15.0264635,14.0495337 14.9994245,12.9555839 C14.9736645,11.8989216 14.0536089,10.9998172 12.9987239,11 C11.906569,11.0001828 10.9733593,11.9563151 11.000581,13.0471576 C11.0270718,14.1133246 11.9350695,15.0005481 12.9989066,14.9999997"></path>
<path d="M16.3129199,12 C16.1662267,12.1350594 16.3390297,12.4519371 16.3647409,12.6803208 C16.5192074,14.0548741 16.0143513,15.1577629 14.826056,15.9097676 C13.6307848,16.6660231 12.3719333,16.6679553 11.1750676,15.9136319 C9.98457988,15.1635594 9.48251416,14.0608639 9.63060262,12.6861174 C9.65471931,12.461598 9.83987971,12.1360255 9.68581191,12 L8.15330564,12 C8.05325125,12.1006666 7.99206262,12.2780408 8.00083232,12.5887354 C8.03870151,13.9397162 7.99784265,15.2926291 8.01398688,16.6443827 C8.02534764,17.5921173 8.4277576,17.9785534 9.4105627,17.9918855 C10.6056346,18.0077293 11.8011051,17.9955566 12.9965756,17.9951702 C14.2251318,17.9947837 15.453688,18.0000006 16.6824435,17.9930448 C17.5283216,17.9882143 17.9789649,17.5668057 17.9855422,16.7440832 C17.9961057,15.3600622 17.9584358,13.9750751 17.9990954,12.5918269 C18.0082637,12.2786205 17.9470751,12.1004734 17.8458248,12 L16.3129199,12 Z"></path>
<path d="M15.4,10 L16.6,10 C16.8208,10 17,9.83709091 17,9.63636364 L17,8.36363636 C17,8.16290909 16.8208,8 16.6,8 L15.4,8 C15.1792,8 15,8.16290909 15,8.36363636 L15,9.63636364 C15,9.83709091 15.1792,10 15.4,10"></path>
</svg>
